<svg width="32" height="32" viewBox="0 0 32 32" fill="none" xmlns="http://www.w3.org/2000/svg">
<path fill-rule="evenodd" clip-rule="evenodd" d="M1.3335 3.78404C1.3335 3.13409 1.59169 2.51075 2.05128 2.05116C2.51087 1.59157 3.13421 1.33338 3.78416 1.33338H28.2135C28.5356 1.33285 28.8546 1.39586 29.1524 1.5188C29.4501 1.64174 29.7206 1.82219 29.9485 2.04983C30.1764 2.27746 30.3571 2.54781 30.4804 2.84539C30.6037 3.14297 30.667 3.46194 30.6668 3.78404V28.2134C30.6672 28.5355 30.604 28.8546 30.4809 29.1523C30.3578 29.4501 30.1773 29.7206 29.9495 29.9485C29.7218 30.1763 29.4513 30.357 29.1537 30.4803C28.856 30.6035 28.537 30.6669 28.2148 30.6667H3.78416C3.46222 30.6667 3.14344 30.6033 2.84603 30.48C2.54861 30.3568 2.27839 30.1762 2.05081 29.9485C1.82323 29.7208 1.64274 29.4504 1.51966 29.153C1.39658 28.8555 1.33332 28.5366 1.3335 28.2147V3.78404ZM12.9442 12.5174H16.9162V14.512C17.4895 13.3654 18.9562 12.3334 21.1602 12.3334C25.3855 12.3334 26.3868 14.6174 26.3868 18.808V26.5707H22.1108V19.7627C22.1108 17.376 21.5375 16.0294 20.0815 16.0294C18.0615 16.0294 17.2215 17.4814 17.2215 19.7627V26.5707H12.9442V12.5174ZM5.61083 26.388H9.88816V12.3334H5.61083V26.3867V26.388ZM10.5002 7.74938C10.5082 8.11561 10.4431 8.47976 10.3085 8.82046C10.1739 9.16117 9.97263 9.47156 9.71647 9.73342C9.46031 9.99528 9.15443 10.2033 8.81677 10.3454C8.47911 10.4874 8.11648 10.5606 7.75016 10.5606C7.38384 10.5606 7.02121 10.4874 6.68356 10.3454C6.3459 10.2033 6.04001 9.99528 5.78385 9.73342C5.5277 9.47156 5.32642 9.16117 5.19184 8.82046C5.05727 8.47976 4.9921 8.11561 5.00016 7.74938C5.01599 7.03052 5.31268 6.34643 5.82668 5.84363C6.34068 5.34082 7.03113 5.05927 7.75016 5.05927C8.4692 5.05927 9.15965 5.34082 9.67365 5.84363C10.1877 6.34643 10.4843 7.03052 10.5002 7.74938Z" fill="white"/>
</svg>
