<svg width="19" height="18" viewBox="0 0 19 18" fill="none" xmlns="http://www.w3.org/2000/svg">
<path d="M12.8398 15H4.58984C4.19202 15 3.81049 14.842 3.52918 14.5607C3.24788 14.2794 3.08984 13.8978 3.08984 13.5V5.25C3.08984 4.85218 3.24788 4.47064 3.52918 4.18934C3.81049 3.90804 4.19202 3.75 4.58984 3.75H7.58984V5.25H4.58984V13.5H12.8398V10.5H14.3398V13.5C14.3398 13.8978 14.1818 14.2794 13.9005 14.5607C13.6192 14.842 13.2377 15 12.8398 15ZM8.86484 10.2802L7.80734 9.21975L12.5271 4.5H9.83984V3H15.0898V8.25H13.5898V5.56125L8.86484 10.2802Z" fill="black"/>
</svg>
