<svg width="32" height="32" viewBox="0 0 32 32" fill="none" xmlns="http://www.w3.org/2000/svg">
<path fill-rule="evenodd" clip-rule="evenodd" d="M9.9535 1.42137C11.5175 1.34937 12.0162 1.33337 16.0002 1.33337C19.9842 1.33337 20.4828 1.35071 22.0455 1.42137C23.6082 1.49204 24.6748 1.74137 25.6082 2.10271C26.5855 2.47204 27.4722 3.04937 28.2055 3.79604C28.9522 4.52804 29.5282 5.41337 29.8962 6.39204C30.2588 7.32537 30.5068 8.39204 30.5788 9.95204C30.6508 11.5187 30.6668 12.0174 30.6668 16C30.6668 19.984 30.6495 20.4827 30.5788 22.0467C30.5082 23.6067 30.2588 24.6734 29.8962 25.6067C29.5282 26.5855 28.9512 27.4723 28.2055 28.2054C27.4722 28.952 26.5855 29.528 25.6082 29.896C24.6748 30.2587 23.6082 30.5067 22.0482 30.5787C20.4828 30.6507 19.9842 30.6667 16.0002 30.6667C12.0162 30.6667 11.5175 30.6494 9.9535 30.5787C8.3935 30.508 7.32683 30.2587 6.3935 29.896C5.41472 29.528 4.52792 28.951 3.79483 28.2054C3.04867 27.4729 2.47125 26.5866 2.10283 25.608C1.7415 24.6747 1.4935 23.608 1.4215 22.048C1.3495 20.4814 1.3335 19.9827 1.3335 16C1.3335 12.016 1.35083 11.5174 1.4215 9.95471C1.49216 8.39204 1.7415 7.32537 2.10283 6.39204C2.47179 5.41348 3.04965 4.52713 3.79616 3.79471C4.52822 3.04871 5.41413 2.4713 6.39216 2.10271C7.3255 1.74137 8.39216 1.49337 9.95216 1.42137H9.9535ZM21.9268 4.06137C20.3802 3.99071 19.9162 3.97604 16.0002 3.97604C12.0842 3.97604 11.6202 3.99071 10.0735 4.06137C8.64283 4.12671 7.86683 4.36537 7.3495 4.56671C6.6655 4.83337 6.17616 5.14937 5.66283 5.66271C5.17622 6.13611 4.80174 6.71242 4.56683 7.34937C4.3655 7.86671 4.12683 8.64271 4.0615 10.0734C3.99083 11.62 3.97616 12.084 3.97616 16C3.97616 19.916 3.99083 20.38 4.0615 21.9267C4.12683 23.3574 4.3655 24.1334 4.56683 24.6507C4.8015 25.2867 5.17616 25.864 5.66283 26.3374C6.13616 26.824 6.7135 27.1987 7.3495 27.4334C7.86683 27.6347 8.64283 27.8734 10.0735 27.9387C11.6202 28.0094 12.0828 28.024 16.0002 28.024C19.9175 28.024 20.3802 28.0094 21.9268 27.9387C23.3575 27.8734 24.1335 27.6347 24.6508 27.4334C25.3348 27.1667 25.8242 26.8507 26.3375 26.3374C26.8242 25.864 27.1988 25.2867 27.4335 24.6507C27.6348 24.1334 27.8735 23.3574 27.9388 21.9267C28.0095 20.38 28.0242 19.916 28.0242 16C28.0242 12.084 28.0095 11.62 27.9388 10.0734C27.8735 8.64271 27.6348 7.86671 27.4335 7.34937C27.1668 6.66537 26.8508 6.17604 26.3375 5.66271C25.8641 5.17614 25.2878 4.80166 24.6508 4.56671C24.1335 4.36537 23.3575 4.12671 21.9268 4.06137ZM14.1268 20.5214C15.173 20.9569 16.338 21.0157 17.4227 20.6877C18.5075 20.3597 19.4447 19.6653 20.0743 18.723C20.7039 17.7808 20.9869 16.6492 20.8749 15.5215C20.7629 14.3938 20.2628 13.34 19.4602 12.54C18.9485 12.0287 18.3298 11.6371 17.6486 11.3936C16.9674 11.15 16.2407 11.0605 15.5208 11.1315C14.8009 11.2025 14.1057 11.4323 13.4852 11.8042C12.8648 12.1762 12.3345 12.681 11.9326 13.2825C11.5306 13.884 11.2671 14.5671 11.1609 15.2827C11.0546 15.9982 11.1084 16.7284 11.3182 17.4207C11.5281 18.113 11.8888 18.7502 12.3745 19.2863C12.8601 19.8225 13.4586 20.2443 14.1268 20.5214ZM10.6695 10.6694C11.3695 9.96934 12.2006 9.41404 13.1152 9.03519C14.0299 8.65633 15.0102 8.46134 16.0002 8.46134C16.9902 8.46134 17.9705 8.65633 18.8851 9.03519C19.7997 9.41404 20.6308 9.96934 21.3308 10.6694C22.0309 11.3694 22.5862 12.2005 22.965 13.1151C23.3439 14.0297 23.5389 15.01 23.5389 16C23.5389 16.99 23.3439 17.9703 22.965 18.885C22.5862 19.7996 22.0309 20.6307 21.3308 21.3307C19.917 22.7445 17.9996 23.5387 16.0002 23.5387C14.0008 23.5387 12.0833 22.7445 10.6695 21.3307C9.25572 19.9169 8.46146 17.9994 8.46146 16C8.46146 14.0007 9.25572 12.0832 10.6695 10.6694ZM25.2108 9.58404C25.3843 9.4204 25.5232 9.22362 25.6192 9.00534C25.7153 8.78706 25.7666 8.55173 25.7701 8.31328C25.7735 8.07483 25.7291 7.8381 25.6395 7.61712C25.5498 7.39614 25.4167 7.19539 25.2481 7.02676C25.0795 6.85813 24.8787 6.72505 24.6578 6.6354C24.4368 6.54574 24.2 6.50134 23.9616 6.50482C23.7231 6.50829 23.4878 6.55958 23.2695 6.65564C23.0513 6.75169 22.8545 6.89057 22.6908 7.06404C22.3726 7.40141 22.1983 7.84954 22.2051 8.31328C22.2119 8.77703 22.3991 9.21988 22.727 9.54783C23.055 9.87578 23.4978 10.063 23.9616 10.0698C24.4253 10.0765 24.8735 9.90229 25.2108 9.58404Z" fill="white"/>
</svg>
